<?xml version="1.0" encoding="UTF-8"?><svg id="Layer_4" xmlns="http://www.w3.org/2000/svg" viewBox="0 0 2000 2000"><defs><style>.cls-1{fill:#fff;}</style></defs><g><path d="m1999.26,228.64l-173.4,426.85c-1.78,4.38-8.33,2.93-8.1-1.81,1.78-38.14-2.39-96.13-33.25-153.57l-116.35,96.85c5.6,7.23,11.05,14.69,16.29,22.35,127.32,185.83,102.37,416.31,10.01,620.59-62.93,139.19-157.16,266.2-255.81,358.67-109.55,102.65-242.29,185.55-377.66,249.7l-1.93-1.4c69.22-72.56,174.9-205.1,224.6-397.6,44.68-173.02,64.16-352.53-28.95-508.19l-122.03,101.61-17.97,90.28-412.44,343.32-.56-.66,13.09-153.65-153.52-15.07-.53-.66,412.44-343.32,92.09-1.25,125.44-104.43c-174.14-181.68-452.38-174.98-684.27-119.81C269.82,793.74,83.89,920.45.59,982.72c224.12-240.67,506.51-440.42,821.64-541.95,237.89-76.63,567.71-86.87,772.13,80.5l123.17-102.52c-59.04-48.47-125.95-61.08-169.1-63.55-4.76-.28-5.45-7.03-.84-8.25l449.33-120.96c1.58-.41,2.95,1.15,2.34,2.65Z"/><path d="m1999.26,228.64l-173.4,426.85c-1.78,4.38-8.33,2.93-8.1-1.81,1.78-38.14-2.39-96.13-33.25-153.57l-116.35,96.85c5.6,7.23,11.05,14.69,16.29,22.35,127.32,185.83,102.37,416.31,10.01,620.59-62.93,139.19-157.16,266.2-255.81,358.67-109.55,102.65-242.29,185.55-377.66,249.7l-1.93-1.4c69.22-72.56,174.9-205.1,224.6-397.6,44.68-173.02,64.16-352.53-28.95-508.19l-122.03,101.61-17.97,90.28-412.44,343.32-.56-.66,13.09-153.65-153.52-15.07-.53-.66,412.44-343.32,92.09-1.25,125.44-104.43c-174.14-181.68-452.38-174.98-684.27-119.81C269.82,793.74,83.89,920.45.59,982.72c224.12-240.67,506.51-440.42,821.64-541.95,237.89-76.63,567.71-86.87,772.13,80.5l123.17-102.52c-59.04-48.47-125.95-61.08-169.1-63.55-4.76-.28-5.45-7.03-.84-8.25l449.33-120.96c1.58-.41,2.95,1.15,2.34,2.65Z"/></g><path class="cls-1" d="m1999.26,228.64l-173.4,426.85c-1.78,4.38-8.33,2.93-8.1-1.81,1.78-38.14-2.39-96.13-33.25-153.57l-116.35,96.85c5.6,7.23,11.05,14.69,16.29,22.35,127.32,185.83,102.37,416.31,10.01,620.59-62.93,139.19-157.16,266.2-255.81,358.67-109.55,102.65-242.29,185.55-377.66,249.7l-1.93-1.4c69.22-72.56,174.9-205.1,224.6-397.6,44.68-173.02,64.16-352.53-28.95-508.19l-122.03,101.61-17.97,90.28-412.44,343.32-.56-.66,13.09-153.65-153.52-15.07-.53-.66,412.44-343.32,92.09-1.25,125.44-104.43c-174.14-181.68-452.38-174.98-684.27-119.81C269.82,793.74,83.89,920.45.59,982.72c224.12-240.67,506.51-440.42,821.64-541.95,237.89-76.63,567.71-86.87,772.13,80.5l123.17-102.52c-59.04-48.47-125.95-61.08-169.1-63.55-4.76-.28-5.45-7.03-.84-8.25l449.33-120.96c1.58-.41,2.95,1.15,2.34,2.65Z"/></svg>